<?xml version="1.0" standalone="no"?>
<!DOCTYPE svg PUBLIC "-//W3C//DTD SVG 20010904//EN"
 "http://www.w3.org/TR/2001/REC-SVG-20010904/DTD/svg10.dtd">
<svg version="1.0" xmlns="http://www.w3.org/2000/svg"
 width="506.000000pt" height="550.000000pt" viewBox="0 0 506.000000 550.000000"
 preserveAspectRatio="xMidYMid meet">

<g transform="translate(0.000000,550.000000) scale(0.100000,-0.100000)"
fill="#000000" stroke="none">
<path d="M2303 3469 c-119 -15 -250 -87 -291 -159 -11 -19 -30 -68 -43 -109
-20 -67 -21 -85 -14 -195 4 -67 9 -141 11 -166 1 -25 6 -56 10 -70 6 -23 3
-22 -24 10 -39 45 -54 33 -43 -35 6 -35 9 -41 10 -20 1 23 3 27 11 15 8 -12
10 -12 10 -1 0 11 5 10 20 -4 11 -10 17 -22 14 -27 -3 -5 -1 -14 5 -21 5 -7
10 -40 11 -72 1 -76 4 -95 17 -120 30 -55 53 -135 53 -183 0 -45 -4 -58 -27
-81 -40 -39 -225 -135 -309 -160 -121 -35 -278 -115 -335 -168 -115 -108 -236
-432 -289 -773 -11 -74 -29 -192 -40 -261 -25 -153 -45 -687 -30 -789 5 -36
10 -68 10 -72 0 -5 97 -8 215 -8 249 0 229 -12 194 120 -20 77 -20 83 -4 187
9 60 27 149 40 198 13 50 29 126 35 170 15 104 20 128 26 123 8 -8 46 -228 51
-293 3 -44 -3 -89 -22 -165 -25 -99 -49 -217 -62 -302 l-5 -38 932 0 c884 0
932 1 925 17 -4 10 -10 38 -12 63 -3 25 -9 50 -14 55 -4 6 -12 38 -18 71 -5
34 -28 114 -50 179 -26 75 -41 137 -42 173 -2 48 36 310 46 320 4 4 27 -73 76
-243 17 -60 42 -145 56 -187 20 -64 24 -97 24 -190 0 -62 -5 -137 -11 -167
-19 -100 -40 -91 209 -91 l219 0 8 98 c15 184 6 282 -56 642 -22 124 -50 293
-64 375 -17 104 -43 206 -82 325 -69 213 -88 258 -157 363 -81 123 -118 156
-223 196 -331 128 -430 178 -517 262 -49 47 -50 49 -44 94 8 56 30 100 70 143
24 25 31 42 33 75 3 88 4 97 13 97 10 0 8 -22 -4 -61 -4 -11 -2 -19 4 -19 6 0
12 12 13 28 1 15 3 38 4 52 1 14 7 38 13 54 16 40 10 70 -14 75 -31 5 -33 16
-19 104 16 95 17 195 3 251 -7 24 -27 54 -55 81 -24 24 -44 53 -44 64 0 27
-69 94 -123 120 -49 24 -190 62 -221 60 -12 -1 -49 -5 -83 -10z m192 -243 c47
-7 86 -19 91 -27 3 -5 14 -9 25 -9 13 0 19 -7 19 -21 0 -11 3 -18 8 -15 4 2
16 -2 27 -10 18 -13 17 -14 -9 -14 -16 0 -25 -4 -21 -10 3 -6 -3 -23 -14 -39
-28 -38 -26 -59 5 -92 l26 -27 -34 -10 c-18 -6 -49 -14 -68 -17 -19 -3 -44 -8
-55 -10 -11 -2 -26 -4 -32 -4 -7 -1 -20 -15 -28 -31 -13 -26 -15 -51 -9 -140
5 -82 4 -113 -6 -125 -14 -17 -80 -21 -80 -4 0 7 -7 8 -17 4 -10 -4 -24 -8
-31 -8 -8 0 -12 -10 -10 -26 3 -22 8 -26 38 -26 19 0 40 -3 45 -6 24 -14 135
6 135 24 0 29 -13 58 -20 47 -10 -16 -30 -4 -30 17 0 9 6 13 14 10 11 -5 14 5
11 49 -1 30 -8 61 -15 69 -6 8 -10 20 -7 27 3 8 6 6 6 -5 1 -16 3 -16 23 3 26
24 38 26 38 5 0 -9 10 -20 23 -26 17 -7 10 -8 -28 -4 l-50 5 25 -20 c41 -32
93 -45 131 -31 57 20 60 7 63 -194 0 -85 -13 -120 -59 -145 -11 -6 -31 -27
-45 -45 -14 -19 -34 -35 -45 -36 -12 0 -15 -3 -7 -6 10 -4 4 -14 -18 -35 -24
-21 -43 -29 -71 -30 -22 0 -41 -4 -44 -8 -8 -13 -98 0 -142 21 -39 19 -93 70
-93 89 0 5 -12 16 -28 25 -30 18 -49 51 -62 105 -10 40 -2 122 11 114 5 -3 9
-1 9 5 0 5 -4 13 -10 16 -14 9 -13 135 1 135 6 0 8 7 5 16 -10 25 5 37 20 16
7 -10 33 -25 57 -31 37 -11 50 -10 83 4 21 8 47 26 57 38 l18 22 -6 -22 c-5
-18 -3 -22 9 -17 20 8 32 104 17 133 -7 11 -18 21 -26 21 -9 0 -23 4 -33 9 -9
6 -38 13 -64 16 -26 3 -50 10 -53 16 -4 5 -18 6 -33 3 -26 -6 -26 -5 8 25 l35
32 -24 19 c-14 12 -21 26 -17 36 6 16 -9 54 -26 65 -5 3 -4 17 3 33 13 27 47
43 74 32 10 -3 15 1 15 11 0 14 9 15 63 10 34 -3 69 -2 76 2 12 8 102 6 156
-3z m-277 -332 c35 -10 26 -27 -10 -18 -18 4 -38 7 -45 7 -7 0 -10 4 -7 9 6 9
30 10 62 2z m391 -13 c12 -8 10 -11 -10 -15 -32 -7 -50 -9 -74 -6 -16 1 -15 4
10 15 36 17 55 18 74 6z m-339 -72 c0 -5 -4 -9 -10 -9 -5 0 -10 7 -10 16 0 8
5 12 10 9 6 -3 10 -10 10 -16z m-82 -14 c-3 -3 -9 2 -12 12 -6 14 -5 15 5 6 7
-7 10 -15 7 -18z m66 -16 c-28 -11 -54 -10 -54 2 0 5 4 8 8 5 4 -2 14 -1 22 4
7 4 20 6 28 2 13 -4 12 -7 -4 -13z m336 11 c0 -5 -5 -10 -11 -10 -5 0 -7 5 -4
10 3 6 8 10 11 10 2 0 4 -4 4 -10z m-307 -763 c39 -37 67 -47 131 -47 52 0 64
4 176 68 30 18 58 32 61 32 4 0 10 -11 13 -26 9 -34 -19 -67 -102 -122 -37
-24 -84 -60 -104 -79 l-37 -36 -53 41 c-29 22 -71 48 -93 56 -43 17 -119 88
-142 133 -7 14 -13 40 -13 58 l0 33 67 -41 c36 -23 80 -55 96 -70z m702 -212
c39 -17 21 -18 -25 0 -19 7 -28 14 -20 14 8 0 29 -6 45 -14z m-192 -194 c3
-14 -1 -18 -19 -18 -36 0 -29 32 7 36 4 1 9 -7 12 -18z m-3 -36 c11 -13 7 -15
-24 -15 -40 0 -49 16 -13 23 12 2 23 5 23 6 1 0 7 -6 14 -14z m10 -79 c0 -16
-28 -42 -36 -33 -7 6 18 47 28 47 5 0 8 -6 8 -14z m530 -85 c0 -29 -41 -56
-132 -86 -46 -15 -95 -34 -110 -41 -31 -16 -38 -17 -38 -6 0 5 46 35 103 69
149 88 177 98 177 64z"/>
<path d="M2284 2480 c-26 -9 -54 -27 -63 -39 -14 -23 -14 -23 6 -17 16 5 26 1
37 -16 9 -12 16 -19 16 -14 0 5 9 1 20 -9 14 -12 39 -19 86 -21 55 -2 69 1 90
19 13 11 24 27 24 35 0 9 6 12 16 8 11 -4 15 -1 12 12 -9 47 -153 72 -244 42z
m140 -48 c16 -4 17 -6 4 -13 -9 -5 -35 -11 -59 -14 -37 -4 -46 -2 -57 15 -12
20 -11 21 40 19 29 -1 62 -4 72 -7z"/>
<path d="M1931 2629 c-1 -9 7 -23 17 -30 15 -12 16 -12 6 1 -6 8 -14 22 -17
30 -5 13 -6 12 -6 -1z"/>
</g>
</svg>
